<svg viewBox="0 0 48 48" xml:space="preserve" xmlns="http://www.w3.org/2000/svg" enable-background="new 0 0 48 48"><path d="M43 46H33c-1.7 0-3-1.3-3-3V28c0-.6-.4-1-1-1H19c-.6 0-1 .4-1 1v15c0 1.7-1.3 3-3 3H5c-1.7 0-3-1.3-3-3V24.8c0-.8.3-1.5.9-2.1l19-19c1.2-1.2 3-1.2 4.2 0l19 19c.6.6.9 1.3.9 2.1V43c0 1.7-1.3 3-3 3zM19 25h10c1.7 0 3 1.3 3 3v15c0 .6.4 1 1 1h10c.6 0 1-.4 1-1V24.8c0-.3-.1-.5-.3-.7l-19-19c-.4-.4-1-.4-1.4 0l-19 19c-.2.2-.3.4-.3.7V43c0 .6.4 1 1 1h10c.6 0 1-.4 1-1V28c0-1.7 1.3-3 3-3z" fill="#111111" class="fill-000000"></path></svg>