<svg enable-background="new 0 0 64 64" viewBox="0 0 64 64" xmlns="http://www.w3.org/2000/svg"><g fill="#134563" transform="translate(332 375)"><path d="m-292.6-355.7-7.4-7.4-7.4 7.4-1.8-1.8 9.2-9.3 9.2 9.3z"/><path d="m-301.4-364.9h2.8v29h-2.8z"/><path d="m-286.2-319.2h-27.7c-2.3 0-4.2-1.9-4.2-4.2v-24.9c0-2.3 1.9-4.2 4.2-4.2h9.7v2.8h-9.7c-.8 0-1.4.6-1.4 1.4v24.9c0 .8.6 1.4 1.4 1.4h27.7c.8 0 1.4-.6 1.4-1.4v-24.9c0-.8-.6-1.4-1.4-1.4h-9.7v-2.8h9.7c2.3 0 4.2 1.9 4.2 4.2v24.9c0 2.3-1.9 4.2-4.2 4.2"/></g></svg>
