<?xml version="1.0" ?><svg id="Layer_1" style="enable-background:new 0 0 48 48;" version="1.1" viewBox="0 0 48 48" xml:space="preserve" xmlns="http://www.w3.org/2000/svg" xmlns:xlink="http://www.w3.org/1999/xlink"><g><path d="M21,22c-2.2,0-4-1.8-4-4s1.8-4,4-4s4,1.8,4,4S23.2,22,21,22z M21,16c-1.1,0-2,0.9-2,2s0.9,2,2,2s2-0.9,2-2S22.1,16,21,16z"/></g><path d="M43,9H5c-1.7,0-3,1.3-3,3v24c0,1.7,1.3,3,3,3h38c1.7,0,3-1.3,3-3V12C46,10.3,44.7,9,43,9z M5,11h38c0.6,0,1,0.4,1,1v1.5  L23.9,29.8l-11-7l-9,6.3V12C4,11.4,4.4,11,5,11z M43,37H5c-0.6,0-1-0.4-1-1v-4.5l9-6.3l11,7L44,16.1V36C44,36.6,43.6,37,43,37z"/><g id="Layer_2"/></svg>